<?xml version="1.0" encoding="utf-8"?>
<!-- Generator: Adobe Illustrator 24.1.1, SVG Export Plug-In . SVG Version: 6.00 Build 0)  -->
<svg version="1.1" id="フォーマット" xmlns="http://www.w3.org/2000/svg" xmlns:xlink="http://www.w3.org/1999/xlink" x="0px"
	 y="0px" viewBox="0 0 181.35 252.6" style="enable-background:new 0 0 181.35 252.6;" xml:space="preserve">
<style type="text/css">
	.st0{fill:#20604F;}
</style>
<g>
	<g>
		<path class="st0" d="M76.48,67.84c0.18,0.89,0.56,1.72,1.1,2.42c0.47,0.61,0.8,0.99,1.43,1.57c0.82,0.9,1.84,2,2.69,3.13
			c0.92,1.22,1.67,2.33,2.22,3.59c0.57,1.31,0.79,1.46,1.29,1.4c0.64-0.08,0.91-1.14,1.24-2.07c0.89-2.48,1.23-5.27,0.93-8.72
			c-0.09-1.03-0.4-2.68-1.09-3.8c-0.82-1.64-1.75-2.79-3.28-3.44c-0.82-0.35-1.8-0.41-2.66-0.34
			C77.41,61.79,75.87,64.77,76.48,67.84z"/>
		<path class="st0" d="M66.15,77.08c0.71,0.56,1.54,0.96,2.4,1.15c0.75,0.16,1.25,0.24,2.11,0.28c1.21,0.16,2.69,0.35,4.07,0.66
			c1.49,0.35,2.78,0.71,4.01,1.32c1.28,0.64,1.54,0.62,1.89,0.24c0.44-0.48-0.04-1.46-0.38-2.38c-0.91-2.48-2.44-4.83-4.89-7.28
			c-0.73-0.73-2.03-1.79-3.28-2.21c-1.69-0.73-3.13-1.01-4.72-0.52c-0.85,0.26-1.64,0.85-2.26,1.45
			C62.97,71.85,63.7,75.12,66.15,77.08z"/>
		<path class="st0" d="M64.17,90.8c0.9-0.02,1.79-0.26,2.57-0.66c0.68-0.36,1.11-0.62,1.8-1.14c1.03-0.65,2.29-1.47,3.55-2.11
			c1.37-0.7,2.58-1.24,3.92-1.56c1.39-0.33,1.58-0.52,1.6-1.03c0.03-0.65-0.96-1.09-1.82-1.58c-2.29-1.31-4.97-2.13-8.42-2.43
			c-1.03-0.09-2.71-0.07-3.94,0.41c-1.76,0.52-3.05,1.24-3.96,2.64c-0.48,0.75-0.71,1.7-0.8,2.56
			C58.37,88.83,61.03,90.87,64.17,90.8z"/>
		<path class="st0" d="M71.47,102.58c0.68-0.6,1.21-1.35,1.54-2.16c0.29-0.71,0.45-1.19,0.65-2.03c0.37-1.16,0.81-2.59,1.36-3.9
			c0.6-1.41,1.18-2.61,2-3.72c0.85-1.15,0.87-1.41,0.57-1.82c-0.39-0.52-1.44-0.22-2.41-0.04c-2.6,0.47-5.18,1.57-8.02,3.55
			c-0.84,0.59-2.12,1.68-2.75,2.85c-1.01,1.53-1.54,2.91-1.34,4.56c0.11,0.88,0.55,1.76,1.03,2.48
			C65.77,104.8,69.12,104.65,71.47,102.58z"/>
		<path class="st0" d="M84.64,106.91c0.14-0.89,0.06-1.81-0.21-2.65c-0.23-0.73-0.42-1.2-0.81-1.97c-0.46-1.13-1.05-2.51-1.46-3.86
			c-0.45-1.47-0.77-2.76-0.86-4.13c-0.09-1.43-0.24-1.65-0.74-1.76c-0.63-0.14-1.24,0.76-1.87,1.52c-1.69,2.03-2.96,4.53-3.86,7.87
			c-0.27,0.99-0.54,2.65-0.28,3.95c0.21,1.83,0.69,3.22,1.91,4.35c0.65,0.61,1.55,1,2.38,1.23
			C81.7,112.28,84.17,110.01,84.64,106.91z"/>
		<path class="st0" d="M97.51,101.77c-0.47-0.77-1.12-1.43-1.86-1.9c-0.65-0.41-1.09-0.65-1.88-0.99c-1.08-0.57-2.41-1.25-3.6-2.02
			c-1.28-0.84-2.37-1.62-3.31-2.62c-0.98-1.04-1.24-1.11-1.69-0.87c-0.58,0.3-0.46,1.38-0.46,2.37c0.01,2.64,0.64,5.37,2.11,8.51
			c0.43,0.93,1.29,2.38,2.33,3.2c1.33,1.26,2.6,2.02,4.26,2.11c0.89,0.05,1.83-0.23,2.62-0.59
			C98.71,107.77,99.14,104.45,97.51,101.77z"/>
		<path class="st0" d="M104.06,89.55c-0.86-0.29-1.77-0.37-2.65-0.26c-0.76,0.1-1.26,0.2-2.08,0.45c-1.19,0.26-2.65,0.6-4.06,0.77
			c-1.52,0.19-2.85,0.28-4.22,0.13c-1.42-0.16-1.66-0.05-1.86,0.42c-0.25,0.6,0.53,1.36,1.17,2.11c1.7,2.01,3.94,3.7,7.08,5.17
			c0.93,0.44,2.52,0.99,3.84,0.96c1.83,0.11,3.29-0.12,4.62-1.12c0.71-0.54,1.25-1.36,1.63-2.13
			C108.84,93.38,107.03,90.56,104.06,89.55z"/>
		<path class="st0" d="M101.23,75.98c-0.84,0.33-1.6,0.85-2.19,1.51c-0.52,0.57-0.83,0.96-1.3,1.68c-0.75,0.96-1.65,2.16-2.61,3.2
			c-1.05,1.12-2,2.05-3.15,2.81c-1.19,0.79-1.31,1.03-1.16,1.52c0.19,0.62,1.28,0.7,2.25,0.86c2.6,0.45,5.4,0.3,8.75-0.6
			c0.99-0.27,2.57-0.86,3.56-1.73c1.48-1.09,2.44-2.21,2.82-3.83c0.2-0.87,0.09-1.85-0.12-2.68
			C107.35,75.85,104.15,74.84,101.23,75.98z"/>
		<path class="st0" d="M90.34,67.41c-0.43,0.79-0.68,1.68-0.71,2.56c-0.03,0.77-0.02,1.27,0.09,2.13c0.05,1.22,0.13,2.71,0.05,4.13
			c-0.08,1.53-0.22,2.86-0.61,4.18c-0.41,1.37-0.34,1.63,0.09,1.91c0.55,0.35,1.43-0.29,2.28-0.79c2.28-1.33,4.33-3.24,6.32-6.08
			c0.59-0.84,1.42-2.31,1.61-3.62c0.43-1.79,0.45-3.26-0.3-4.74c-0.4-0.79-1.12-1.47-1.82-1.98C94.94,63.37,91.84,64.66,90.34,67.41
			z"/>
	</g>
	<path class="st0" d="M64.42,3.35c-0.06,0.61,0.02,1.23,0.23,1.79c0.18,0.49,0.32,0.8,0.61,1.31c0.35,0.75,0.79,1.66,1.11,2.57
		c0.35,0.98,0.61,1.84,0.71,2.77c0.1,0.96,0.21,1.11,0.56,1.17c0.43,0.08,0.82-0.56,1.22-1.09c1.08-1.43,1.86-3.16,2.36-5.46
		c0.15-0.68,0.28-1.81,0.06-2.68c-0.2-1.23-0.57-2.16-1.43-2.89c-0.46-0.39-1.09-0.63-1.66-0.76C66.25-0.38,64.64,1.24,64.42,3.35z"
		/>
	<path class="st0" d="M75.56,3.51c-0.42,0.45-0.72,0.99-0.89,1.57c-0.15,0.5-0.22,0.83-0.3,1.41C74.2,7.3,74.01,8.3,73.72,9.21
		c-0.31,0.99-0.62,1.84-1.09,2.65c-0.5,0.83-0.49,1.01-0.26,1.27c0.3,0.32,0.99,0.05,1.63-0.14c1.72-0.49,3.39-1.41,5.16-2.95
		c0.53-0.46,1.31-1.28,1.66-2.11c0.58-1.1,0.84-2.07,0.59-3.17c-0.13-0.59-0.49-1.15-0.87-1.6C79.26,1.62,77.01,1.95,75.56,3.51z"/>
	<path class="st0" d="M55.05,7.57c0.28,0.55,0.68,1.02,1.16,1.38c0.42,0.31,0.71,0.5,1.22,0.76c0.7,0.44,1.57,0.96,2.33,1.55
		c0.83,0.63,1.52,1.21,2.11,1.94c0.61,0.75,0.78,0.81,1.1,0.68c0.41-0.17,0.38-0.91,0.43-1.58c0.13-1.79-0.16-3.67-1-5.86
		c-0.25-0.65-0.75-1.68-1.41-2.28c-0.84-0.92-1.65-1.5-2.78-1.64c-0.6-0.08-1.25,0.07-1.8,0.26C54.55,3.45,54.08,5.67,55.05,7.57z"
		/>
	<path class="st0" d="M162.48,90.32c-6,5.54-11.33,7.38-11.33,7.38s3.58-4.91,5.1-9.8c2.34-7.51,2.52-12.37,1.9-17.2
		c-0.66-5.09-2.29-9.63-3.54-12.11c-0.63-1.24-0.94-1.14-1.29,0.07c-1.28,4.43-2.92,8.37-7.86,14.72
		c2.92-18.2-6.85-31.49-12.86-36.18c-4.12-3.21-4.02-3.18-2.73,2.12c1.62,6.7,2.95,20.38,0.38,33.1
		c-1.48,7.34-3.24,11.04-5.18,15.87c-1.9,4.74-4.1,8.79-8.13,14.25c-12.67,13.85-21.42,16.9-35.46,16.73
		c-9.68-0.11-20.16-6.16-25.02-13.39c-4.6-5.7-7.15-13.25-7.15-21.14c0-8.12,2.32-15.27,7.22-21.52c1.8-2.62-0.16-4.26-3.01-1.72
		c-8.12,6.37-14.69,19.24-14.32,35.72c0.59,26.19,15.56,39.99,33.95,46.91c12.41,4.11,28.58,5.92,48.28-1.45
		c31.05-12.37,40.72-40.61,42.64-50.66C164.62,89.17,164.02,88.9,162.48,90.32z"/>
	<path class="st0" d="M90.49,51.21c-0.35-7.52-3.45-11.11-3.55-11.37c-0.05-0.13,0.54-1.69,0.68-4.02
		c0.22-3.63-0.49-9.16-5.15-14.11c-4.75-5.36-19.11-12.23-36.65,5.94C27.18,46.96,24.05,67.59,25.26,81.73
		c0.93,10.86,3.07,19.38,9.03,30.39c1.51,2.79,3.81,1.67,2.77-1.1c-2.2-5.85-4.87-15.57-3.15-29.09c1.4-11,6.5-22.06,12.03-28.85
		c4.36-5.35,12.75-15.3,26.67-13.11c5.46,0.86,14.08,5.63,16.13,16.35c0.25,1.47,0.95,1.31,1.29-0.09
		C90.37,54.85,90.55,52.09,90.49,51.21z M80.76,30.1c0,0-0.05,0.31-1.45,0.29c-1.4-0.02-2.68-1.01-3.62-2.13
		c-0.94-1.12-1.65-2.8-1.56-2.7c0.09,0.1,1.44-0.01,3.31,0.44c1.87,0.45,2.76,1.77,3.07,2.55C81.07,29.99,80.76,30.1,80.76,30.1z"/>
</g>
<g>
	<path class="st0" d="M6.92,252.19c-0.24-0.04-0.48-0.06-0.73-0.06H5.36c-0.53,0-1.09,0.02-1.65,0.07l-0.72,0.06l0.05-0.72
		c0.18-2.79,0.29-5.59,0.31-8.31l0-0.33c0.02-2.34,0.03-3.78,0.04-6.19c-0.27,0.01-0.54,0.02-0.81,0.03l-2.17,0.12l0.15-0.78
		c0.02-0.1,0.03-0.2,0.04-0.3c0.01-0.11,0.02-0.22,0.02-0.33c0-0.11,0-0.22-0.02-0.33c-0.01-0.1-0.02-0.2-0.04-0.3l-0.14-0.74h0.75
		c0.47,0,0.94,0.01,1.42,0.02c0.28,0.01,0.55,0.01,0.82,0.02c0.03-0.62,0.11-1.27,0.23-1.96c0.16-0.91,0.4-1.82,0.72-2.7
		c0.31-0.88,0.69-1.73,1.13-2.52c0.45-0.81,0.96-1.51,1.53-2.06c0.51-0.51,1.17-0.96,1.95-1.35c0.81-0.4,1.65-0.61,2.5-0.61
		c0.34,0,0.65,0.05,0.94,0.13l0.3,0.09l0.14,0.37l0,0.05c-0.02,0.62-0.06,1.14-0.1,1.66c-0.04,0.5-0.06,1-0.06,1.49v0.25l-0.23,0.24
		l-0.57,0.29l-0.25-0.14c-0.62-0.34-1.26-0.5-1.95-0.5c-0.48,0-0.89,0.09-1.21,0.26c-0.33,0.18-0.61,0.41-0.82,0.69
		c-0.21,0.28-0.37,0.63-0.47,1.02c-0.11,0.42-0.16,0.86-0.16,1.33c0,0.45,0.05,1.11,0.14,1.96c0.07,0.69,0.16,1.36,0.25,2
		c0.52,0,1.02-0.01,1.52-0.02c0.66-0.01,1.33-0.02,2.01-0.02h0.76l-0.15,0.74c-0.02,0.1-0.03,0.2-0.04,0.29
		c-0.01,0.11-0.02,0.22-0.02,0.33c0,0.11,0,0.22,0.02,0.33c0.01,0.1,0.02,0.2,0.04,0.29l0.15,0.77l-2.77-0.11
		c-0.48-0.02-0.95-0.03-1.43-0.03c0,2.46,0.01,3.91,0.02,6.49c0.01,2.73,0.06,5.55,0.14,8.37l0.02,0.76L6.92,252.19z"/>
	<path class="st0" d="M33.11,252.22c-0.56-0.05-1.13-0.07-1.69-0.07c-0.56,0-1.13,0.02-1.69,0.07l-0.74,0.06l0.07-0.73
		c0.05-0.56,0.1-1.29,0.13-2.17c0.04-0.87,0.07-1.83,0.1-2.85c0.03-1,0.05-2.01,0.06-3.04c0.01-1.03,0.02-1.98,0.02-2.85v-6.98
		c0-0.87-0.01-1.82-0.02-2.85c-0.01-1.03-0.03-2.04-0.06-3.04c-0.01-0.5-0.03-0.63-0.04-0.78c-0.02-0.16-0.03-0.32-0.05-0.75
		c-0.04-0.88-0.08-1.64-0.13-2.27l-0.07-0.8l0.79,0.13c0.68,0.12,1.23,0.18,1.64,0.18c0.41,0,0.96-0.06,1.64-0.18l0.79-0.13
		l-0.07,0.8c-0.05,0.6-0.09,1.34-0.13,2.27c-0.02,0.45-0.04,0.61-0.05,0.75c-0.02,0.15-0.03,0.29-0.04,0.78
		c-0.03,1-0.05,2.01-0.06,3.04c-0.01,1.03-0.02,1.98-0.02,2.85v6.98c0,0.87,0.01,1.82,0.02,2.85c0.01,1.03,0.03,2.04,0.06,3.04
		c0.03,0.98,0.06,1.93,0.1,2.85c0.04,0.9,0.08,1.61,0.13,2.17l0.07,0.73L33.11,252.22z"/>
	<path class="st0" d="M61.56,252.6c-1.25,0-2.52-0.19-3.78-0.56c-1.29-0.38-2.47-1.04-3.51-1.97c-1.03-0.92-1.88-2.14-2.51-3.63
		c-0.63-1.47-0.95-3.27-0.95-5.36c0-2.08,0.32-3.88,0.95-5.36c0.63-1.48,1.48-2.7,2.51-3.62c1.03-0.92,2.2-1.6,3.49-2.03
		c1.26-0.42,2.54-0.63,3.8-0.63c1.29,0,2.57,0.21,3.82,0.63c1.27,0.42,2.43,1.1,3.47,2.03c1.04,0.93,1.88,2.15,2.51,3.63
		c0.63,1.47,0.95,3.28,0.95,5.36c0,2.08-0.32,3.88-0.95,5.36c-0.63,1.48-1.47,2.7-2.51,3.63c-1.04,0.93-2.21,1.59-3.49,1.97
		C64.11,252.41,62.83,252.6,61.56,252.6z M61.56,232.09c-1.1,0-2.03,0.24-2.77,0.7c-0.74,0.47-1.35,1.12-1.8,1.93
		c-0.47,0.84-0.8,1.81-1,2.89c-0.2,1.11-0.3,2.28-0.3,3.48c0,1.2,0.1,2.37,0.3,3.48c0.2,1.08,0.53,2.05,1,2.89
		c0.45,0.81,1.05,1.46,1.8,1.93c0.73,0.47,1.67,0.7,2.77,0.7c1.1,0,2.03-0.24,2.77-0.7c0.75-0.48,1.35-1.13,1.8-1.93
		c0.47-0.84,0.8-1.81,1-2.89c0.2-1.11,0.3-2.28,0.3-3.48s-0.1-2.37-0.3-3.48c-0.2-1.08-0.53-2.05-1-2.89
		c-0.45-0.81-1.06-1.46-1.8-1.93C63.59,232.32,62.66,232.09,61.56,232.09z"/>
	<path class="st0" d="M106.59,251.67c-0.72-2.59-1.51-5.24-2.36-7.86c-0.7-2.17-1.51-4.46-2.39-6.84c-0.2,0.55-0.42,1.14-0.65,1.78
		c-0.46,1.29-0.95,2.71-1.46,4.22c-0.5,1.5-1,3.03-1.5,4.58c-0.5,1.54-0.94,2.92-1.33,4.15l-0.11,0.34l-0.43,0.12l-0.06-0.01
		c-0.41-0.06-0.76-0.08-1.17-0.08c-0.4,0-0.75,0.02-1.03,0.07l-0.36,0.06l-0.3-0.33l-0.02-0.06c-0.37-1.18-0.81-2.56-1.37-4.24
		c-0.55-1.67-1.16-3.48-1.82-5.38c-0.65-1.88-1.33-3.85-2.04-5.84c-0.7-1.97-1.4-3.84-2.08-5.57l-0.42-1.06l1.12,0.2
		c0.3,0.05,0.6,0.1,0.9,0.14c0.29,0.04,0.59,0.06,0.9,0.06c0.27,0,0.55-0.02,0.83-0.06c0.29-0.04,0.61-0.09,0.96-0.15l0.37-0.06
		l0.29,0.35l0.02,0.06c0.76,2.87,1.58,5.7,2.43,8.41c0.72,2.28,1.52,4.66,2.38,7.07c0.19-0.51,0.4-1.09,0.63-1.75
		c0.46-1.33,0.95-2.8,1.46-4.37c0.49-1.54,1-3.15,1.5-4.78c0.48-1.57,0.93-3.07,1.32-4.47l0.17-0.62l0.62,0.18
		c0.43,0.12,0.78,0.19,1.05,0.19c0.17,0,0.31-0.02,0.43-0.05l1.18-0.31l0.15,0.64c0.68,2.78,1.49,5.58,2.4,8.31
		c0.75,2.25,1.53,4.59,2.34,6.96c0.21-0.58,0.44-1.21,0.68-1.88c0.49-1.37,0.99-2.82,1.52-4.34c0.53-1.52,1.06-3.08,1.61-4.67
		l1.71-5.01l0.5,0.13c0.54,0.14,0.94,0.21,1.22,0.21c0.28,0,0.62-0.06,1-0.17l1.33-0.4l-0.56,1.27c-1.55,3.49-3.03,7.02-4.41,10.49
		c-1.37,3.47-2.66,6.96-3.84,10.4l-0.12,0.34l-0.42,0.11l-0.05-0.01c-0.38-0.06-0.69-0.08-1.07-0.08h-0.59
		c-0.13,0-0.21,0.02-0.25,0.03l-0.66,0.24L106.59,251.67z"/>
	<path class="st0" d="M142,252.6c-1.57,0-3.03-0.26-4.33-0.77c-1.31-0.52-2.46-1.28-3.43-2.27c-0.96-0.99-1.71-2.17-2.22-3.51
		c-0.51-1.33-0.77-2.79-0.77-4.34c0-3.75,0.87-6.76,2.57-8.93c1.74-2.21,4.3-3.33,7.59-3.33c1.56,0,2.92,0.26,4.07,0.79
		c1.14,0.52,2.12,1.23,2.89,2.1c0.78,0.87,1.36,1.91,1.73,3.08c0.37,1.15,0.55,2.39,0.55,3.69c0,0.3-0.01,0.6-0.02,0.89
		c-0.02,0.28-0.04,0.57-0.06,0.86l-0.03,0.38l-0.43,0.19l-4.62-0.08c-1.49-0.03-2.99-0.04-4.46-0.04c-0.88,0-1.8,0.01-2.72,0.04
		l-2.19,0.07c0,0.03,0,0.65,0,0.65c0,1.09,0.15,2.11,0.45,3.05c0.29,0.92,0.73,1.72,1.28,2.38c0.55,0.65,1.25,1.18,2.06,1.57
		c0.8,0.39,1.75,0.58,2.83,0.58c0.5,0,1.02-0.07,1.55-0.22c0.54-0.15,1.08-0.36,1.6-0.62c0.52-0.26,1.01-0.58,1.46-0.93
		c0.44-0.35,0.83-0.73,1.16-1.12l0.23-0.28l0.44,0.06l0.66,0.4l-0.32,2.77l-0.16,0.14c-0.89,0.77-1.97,1.41-3.29,1.95
		C144.78,252.33,143.4,252.6,142,252.6z M138.36,238.63c0.93,0.03,1.84,0.04,2.71,0.04c0.9,0,1.83-0.01,2.78-0.04l2.16-0.07
		c-0.02-0.6-0.08-1.21-0.17-1.86c-0.12-0.82-0.35-1.59-0.7-2.3c-0.33-0.68-0.8-1.25-1.39-1.69c-0.56-0.42-1.32-0.63-2.27-0.63
		c-0.9,0-1.66,0.22-2.26,0.64c-0.64,0.45-1.17,1.03-1.59,1.7c-0.43,0.7-0.75,1.48-0.98,2.32c-0.17,0.63-0.29,1.24-0.36,1.81
		L138.36,238.63z"/>
	<path class="st0" d="M173.91,252.15c-0.5-0.05-1.03-0.08-1.56-0.08c-0.59,0-1.14,0.03-1.65,0.08l-0.77,0.08l0.06-0.77
		c0.08-0.99,0.13-2.34,0.14-4.01c0.01-1.72,0.02-3.86,0.02-6.35v-1.42c0-1.15-0.01-2.48-0.02-3.98c-0.01-1.47-0.06-3.2-0.14-5.12
		l-0.04-0.81l0.8,0.15c0.28,0.05,0.55,0.1,0.81,0.14c0.24,0.04,0.51,0.06,0.78,0.06c0.22,0,0.46-0.02,0.7-0.06
		c0.26-0.04,0.53-0.09,0.81-0.14l0.85-0.17l-0.09,0.86c-0.09,0.85-0.15,1.56-0.17,2.12c1.49-2.17,3.16-3.28,4.96-3.28
		c0.28,0,0.53,0.02,0.74,0.05c0.22,0.03,0.49,0.12,0.79,0.25l0.36,0.15l0.05,0.47l-0.02,0.06c-0.14,0.41-0.21,0.88-0.24,1.53
		c-0.03,0.7-0.04,1.35-0.04,1.95v0.26l-0.49,0.41l-0.51,0.36l-0.33-0.38c-0.11-0.13-0.29-0.24-0.59-0.35
		c-0.33-0.12-0.68-0.18-1.02-0.18c-0.55,0-1.05,0.13-1.48,0.4c-0.45,0.28-0.84,0.66-1.15,1.13c-0.32,0.49-0.58,1.08-0.75,1.77
		c-0.18,0.7-0.27,1.46-0.27,2.26v4.87c0,2.02,0.01,3.5,0.02,4.53c0.01,1.01,0.06,1.83,0.14,2.44l0.1,0.8L173.91,252.15z"/>
</g>
<g>
	<path class="st0" d="M73.56,178.1c-0.51,0-0.69-0.55-0.74-0.73c-0.09-0.29-0.14-0.63-0.18-0.94c-0.05-0.37-0.1-0.76-0.23-1.09
		c-0.17-0.44-0.45-0.84-0.72-1.23l-0.2-0.29c-0.26-0.31-0.39-0.53-0.56-0.83c-0.19-0.36-0.29-0.81-0.28-1.33
		c0.02-1.71,1.43-3.1,3.14-3.1c0.53,0.01,1,0.13,1.44,0.35c0.76,0.4,1.36,1.12,1.65,1.99c0.2,0.54,0.26,1.18,0.16,1.79
		c-0.32,1.94-1.13,3.16-2.01,4.35c-0.31,0.42-0.58,0.73-0.96,0.92C73.87,178.05,73.71,178.1,73.56,178.1L73.56,178.1z"/>
	<path class="st0" d="M10.05,213.46c-2.48,0-4.53-0.34-6.07-1c-1.5-0.65-2.79-1.39-3.82-2.22L0,210.11l0.07-0.19
		c0.34-0.88,0.57-1.68,0.71-2.39c0.13-0.72,0.26-1.64,0.38-2.73l0.03-0.24h0.94l0.07,0.16c0.31,0.69,0.73,1.39,1.24,2.1
		c0.53,0.73,1.18,1.4,1.95,1.99c0.76,0.59,1.67,1.08,2.69,1.45c1.02,0.37,2.17,0.56,3.42,0.56c1.29,0,2.47-0.23,3.51-0.68
		c1.03-0.45,1.92-1.07,2.65-1.83c0.72-0.76,1.29-1.68,1.68-2.72c0.39-1.04,0.59-2.17,0.59-3.35c0-1.8-0.46-3.25-1.37-4.3
		c-0.92-1.06-2.09-1.96-3.46-2.68c-1.39-0.72-2.9-1.38-4.5-1.98c-1.62-0.6-3.15-1.37-4.55-2.27c-1.41-0.91-2.6-2.09-3.54-3.5
		c-0.95-1.42-1.43-3.35-1.43-5.74c0-1.7,0.31-3.26,0.91-4.66c0.6-1.4,1.49-2.62,2.64-3.63c1.15-1.01,2.54-1.81,4.15-2.38
		c1.61-0.56,3.43-0.85,5.44-0.85c1.92,0,3.61,0.24,5.02,0.7c1.38,0.45,2.67,1.16,3.85,2.09l0.17,0.14l-0.1,0.2
		c-0.33,0.65-0.62,1.34-0.84,2.05c-0.23,0.73-0.46,1.66-0.69,2.77l-0.05,0.22h-0.94l-0.06-0.18c-0.19-0.53-0.45-1.11-0.77-1.74
		c-0.33-0.64-0.78-1.25-1.35-1.8c-0.56-0.55-1.25-1.01-2.03-1.39c-0.78-0.37-1.72-0.56-2.81-0.56c-1.09,0-2.12,0.18-3.03,0.53
		c-0.92,0.35-1.73,0.86-2.41,1.51c-0.68,0.64-1.21,1.43-1.58,2.33c-0.37,0.9-0.56,1.89-0.56,2.96c0,1.84,0.46,3.31,1.37,4.36
		c0.92,1.07,2.09,1.98,3.46,2.71c1.38,0.74,2.9,1.4,4.5,1.98c1.62,0.58,3.15,1.3,4.55,2.15c1.41,0.85,2.6,1.96,3.55,3.29
		c0.95,1.34,1.43,3.15,1.43,5.38c0,1.86-0.34,3.64-1,5.29c-0.66,1.66-1.64,3.12-2.91,4.35c-1.26,1.23-2.83,2.19-4.66,2.86
		C14.47,213.12,12.37,213.46,10.05,213.46z"/>
	<path class="st0" d="M43.78,213.29c-3.2,0-4.81-0.98-6.51-2.66c-1.78-1.76-2.68-4.33-2.68-7.64c0-2.22,0.03-4.14,0.09-5.72
		c0.06-1.58,0.09-3.16,0.09-4.7c0-1.45-0.01-3.02-0.03-4.79c-0.02-1.67-0.05-3.37-0.09-5.07l-0.01-0.34l0.68,0.14
		c0.66,0.14,0.99,0.21,1.52,0.21c0.49,0,0.8-0.07,1.44-0.2l0.73-0.15l-0.03,0.36c-0.19,2.46-0.34,5.19-0.43,8.12
		c-0.1,2.99-0.15,6.09-0.15,9.24c0,2.16,0.18,3.84,0.53,4.97c0.35,1.13,0.78,2,1.28,2.57c0.54,0.66,1.23,1.21,2.06,1.64
		c0.83,0.43,1.81,0.65,2.93,0.65c1.62,0,2.99-0.38,4.07-1.14c1.08-0.76,1.88-1.71,2.38-2.81c0.27-0.7,0.49-1.31,0.65-1.81
		c0.15-0.49,0.28-1.17,0.38-1.99c0.1-0.83,0.16-1.97,0.18-3.39c0.02-1.46,0.03-3.43,0.03-5.87v-5.3c0-0.9-0.01-1.79-0.03-2.65
		c-0.02-0.78-0.05-1.53-0.08-2.23l-0.02-0.34l0.34,0.06c0.36,0.07,0.72,0.13,1.08,0.19c0.39,0.06,0.58,0.09,1.01,0.09
		c0.42,0,0.62-0.03,1.01-0.09c0.35-0.06,0.69-0.12,1.01-0.18l0.35-0.07l-0.02,0.35c-0.19,3.2-0.31,6.34-0.34,9.32
		c-0.04,3.01-0.06,6.27-0.06,9.68c0,1.9,0.02,3.77,0.06,5.55c0.04,1.73,0.09,3.44,0.17,5.08l0.01,0.31l-0.31-0.03
		c-0.71-0.07-1.22-0.11-1.93-0.11c-0.7,0-1.2,0.04-1.92,0.11l-0.33,0.03l0.03-0.33c0.03-0.33,0.06-0.68,0.07-1.03
		c0.02-0.42,0.03-0.86,0.03-1.32v-2.37c-1.02,1.9-2.32,3.32-3.88,4.23C47.5,212.81,45.7,213.29,43.78,213.29z"/>
	<path class="st0" d="M71.28,212.37c0.19-1.63,0.31-3.48,0.37-5.48c0.06-2.07,0.09-4.08,0.09-5.96v-6.56c0-1.88-0.03-3.89-0.09-5.96
		c-0.03-1.2-0.16-3.74-0.37-5.77l-0.04-0.36l0.36,0.07c1.01,0.19,1.84,0.28,2.47,0.28c0.63,0,1.46-0.09,2.47-0.28l0.36-0.07
		l-0.04,0.36c-0.21,2.02-0.32,4.31-0.37,5.77c-0.06,2.06-0.09,4.07-0.09,5.96v6.56c0,1.89,0.03,3.9,0.09,5.96
		c0.06,2.01,0.18,3.85,0.37,5.48l0.04,0.33l-0.33-0.03c-0.84-0.07-1.68-0.11-2.5-0.11c-0.82,0-1.66,0.04-2.5,0.11l-0.33,0.03
		L71.28,212.37z"/>
	<path class="st0" d="M114.59,212.62c-0.53-0.06-1.02-0.09-1.46-0.09h-3c-0.49,0-1,0.04-1.52,0.12l-0.15,0.02l-0.1-0.12
		c-0.98-1.2-1.95-2.42-2.91-3.64c-1.11-1.41-2.2-2.81-3.29-4.2c-1.05-1.34-2.1-2.65-3.11-3.91c-0.88-1.08-1.64-1.93-2.31-2.68
		l-0.24-0.27c-0.07-0.09-0.11-0.12-0.18-0.17c-0.05-0.04-0.11-0.08-0.18-0.14c-0.11-0.1-0.24-0.15-0.38-0.15
		c-0.32,0-0.51,0.02-0.51,0.49v3.72c0,1.9,0.03,3.75,0.09,5.52c0.06,1.73,0.18,3.49,0.37,5.23l0.04,0.33l-0.33-0.03
		c-0.84-0.07-1.68-0.11-2.5-0.11c-0.82,0-1.66,0.04-2.5,0.11l-0.32,0.03l0.03-0.32c0.07-0.93,0.14-2.11,0.19-3.5
		c0.06-1.45,0.11-3.02,0.15-4.67c0.04-1.62,0.07-3.3,0.09-4.98c0.02-1.74,0.03-3.27,0.03-4.67v-11.42c0-1.54-0.01-2.93-0.03-4.67
		c0-0.39-0.07-1.93-0.14-3.42c-0.04-0.87-0.08-1.71-0.1-2.26c-0.06-1.41-0.12-2.63-0.2-3.64l-0.03-0.35l0.35,0.06
		c1.01,0.19,1.85,0.28,2.48,0.28c0.63,0,1.46-0.09,2.48-0.28l0.35-0.06l-0.03,0.35c-0.07,1.01-0.14,2.2-0.19,3.64
		c-0.02,0.58-0.06,1.45-0.1,2.34c-0.06,1.45-0.13,2.95-0.14,3.34c-0.02,1.64-0.02,2.95-0.03,4.67l0.09,11.26
		c0.02,0.37,0.21,0.52,0.65,0.52c0.28,0,0.6-0.16,0.99-0.4l0.1-0.06c0.4-0.24,0.52-0.31,1.04-0.74c0.29-0.24,0.71-0.65,1.29-1.23
		l0.84-0.83c0.73-0.72,1.49-1.47,2.39-2.43c0.93-0.99,1.88-2.07,2.88-3.21l0.34-0.39c0.45-0.51,0.87-0.97,1.28-1.4
		c0.57-0.61,1.12-1.19,1.64-1.84l0.11-0.14l0.57,0.15c0.63,0.17,1.29,0.35,1.83,0.35c0.42,0,0.86-0.03,1.29-0.09
		c0.32-0.05,0.72-0.1,1.23-0.17l0.89-0.11l-0.68,0.59c-2.37,2.05-4.66,4.08-6.82,6.06c-2.23,2.04-4.38,4.14-6.41,6.25
		c2.22,2.85,4.55,5.76,6.9,8.61c2.31,2.8,4.7,5.6,7.1,8.32l0.46,0.52L114.59,212.62z"/>
	<path class="st0" d="M134.87,213.29c-1.64,0-3.31-0.26-4.97-0.76c-1.67-0.51-3.19-1.4-4.53-2.65c-1.34-1.25-2.43-2.9-3.25-4.91
		c-0.82-2-1.24-4.47-1.24-7.34c0-2.87,0.42-5.34,1.24-7.34c0.82-2.01,1.91-3.66,3.25-4.91c1.34-1.25,2.86-2.17,4.52-2.74
		c1.66-0.57,3.33-0.86,4.98-0.86c1.68,0,3.36,0.29,5,0.86c1.64,0.57,3.16,1.5,4.49,2.74c1.34,1.25,2.43,2.9,3.25,4.91
		c0.82,2.01,1.24,4.48,1.24,7.34c0,2.86-0.42,5.33-1.24,7.34c-0.82,2.01-1.92,3.66-3.25,4.91c-1.34,1.25-2.85,2.14-4.5,2.65
		C138.23,213.03,136.54,213.29,134.87,213.29z M134.87,184.07c-1.75,0-3.24,0.38-4.43,1.12c-1.19,0.74-2.16,1.75-2.88,3.01
		c-0.72,1.26-1.24,2.72-1.54,4.34c-0.3,1.63-0.45,3.34-0.45,5.08c0,1.75,0.15,3.46,0.45,5.09c0.3,1.62,0.82,3.08,1.54,4.34
		c0.71,1.26,1.68,2.27,2.88,3.01c1.19,0.74,2.68,1.12,4.43,1.12c1.75,0,3.25-0.38,4.44-1.12c1.19-0.74,2.16-1.75,2.88-3.01
		c0.72-1.26,1.24-2.72,1.54-4.34c0.3-1.63,0.45-3.34,0.45-5.09c0-1.75-0.15-3.46-0.45-5.08c-0.3-1.62-0.82-3.08-1.54-4.34
		c-0.72-1.26-1.68-2.27-2.88-3.01C138.11,184.45,136.62,184.07,134.87,184.07z"/>
	<path class="st0" d="M167.53,213.29c-3.2,0-4.81-0.98-6.51-2.66c-1.78-1.76-2.68-4.33-2.68-7.64c0-2.22,0.03-4.15,0.09-5.72
		c0.06-1.57,0.09-3.15,0.09-4.7c0-1.45-0.01-3.02-0.03-4.79c-0.02-1.67-0.05-3.37-0.09-5.07l-0.01-0.34l0.68,0.14
		c0.66,0.14,0.99,0.21,1.52,0.21c0.49,0,0.81-0.07,1.44-0.2l0.73-0.15l-0.03,0.36c-0.19,2.46-0.33,5.19-0.43,8.12
		c-0.1,2.99-0.15,6.1-0.15,9.24c0,2.16,0.18,3.84,0.53,4.97c0.35,1.13,0.78,2,1.28,2.57c0.54,0.66,1.23,1.21,2.06,1.64
		c0.83,0.43,1.81,0.65,2.93,0.65c1.62,0,2.99-0.38,4.07-1.14c1.08-0.76,1.88-1.71,2.38-2.81c0.27-0.7,0.49-1.31,0.65-1.81
		c0.15-0.5,0.28-1.17,0.38-1.99c0.1-0.83,0.16-1.97,0.18-3.39c0.02-1.43,0.03-3.41,0.03-5.87v-5.3c0-0.9-0.01-1.79-0.03-2.65
		c-0.02-0.78-0.05-1.53-0.08-2.23l-0.02-0.34l0.34,0.06c0.36,0.07,0.72,0.13,1.08,0.19c0.39,0.06,0.58,0.09,1.01,0.09
		c0.42,0,0.62-0.03,1-0.09c0.35-0.06,0.69-0.12,1.01-0.18l0.35-0.07l-0.02,0.35c-0.19,3.21-0.31,6.34-0.35,9.32
		c-0.04,3.01-0.06,6.27-0.06,9.68c0,1.9,0.02,3.77,0.06,5.55c0.04,1.73,0.09,3.44,0.17,5.08l0.01,0.31l-0.31-0.03
		c-0.71-0.07-1.22-0.11-1.93-0.11c-0.7,0-1.2,0.04-1.92,0.11l-0.33,0.03l0.03-0.33c0.03-0.33,0.06-0.68,0.07-1.03
		c0.02-0.42,0.03-0.86,0.03-1.32v-2.37c-1.02,1.9-2.32,3.32-3.88,4.23C171.24,212.81,169.44,213.29,167.53,213.29z"/>
</g>
</svg>
